<svg width="100" height="100" viewBox="0 0 100 100" fill="none" xmlns="http://www.w3.org/2000/svg">
<path d="M70.8337 74.9999C66.2087 74.9999 62.5003 78.7083 62.5003 83.3333C62.5003 85.5434 63.3783 87.663 64.9411 89.2258C66.5039 90.7886 68.6235 91.6666 70.8337 91.6666C73.0438 91.6666 75.1634 90.7886 76.7262 89.2258C78.289 87.663 79.167 85.5434 79.167 83.3333C79.167 81.1231 78.289 79.0035 76.7262 77.4407C75.1634 75.8779 73.0438 74.9999 70.8337 74.9999ZM4.16699 8.33325V16.6666H12.5003L27.5003 48.2916L21.8337 58.4999C21.2087 59.6666 20.8337 61.0416 20.8337 62.4999C20.8337 64.7101 21.7116 66.8297 23.2744 68.3925C24.8372 69.9553 26.9569 70.8333 29.167 70.8333H79.167V62.4999H30.917C30.6407 62.4999 30.3758 62.3902 30.1804 62.1948C29.9851 61.9995 29.8753 61.7345 29.8753 61.4583C29.8753 61.2499 29.917 61.0833 30.0003 60.9583L33.7503 54.1666H64.792C67.917 54.1666 70.667 52.4166 72.0837 49.8749L87.0003 22.9166C87.292 22.2499 87.5003 21.5416 87.5003 20.8333C87.5003 19.7282 87.0613 18.6684 86.2799 17.887C85.4985 17.1056 84.4387 16.6666 83.3337 16.6666H21.7087L17.792 8.33325M29.167 74.9999C24.542 74.9999 20.8337 78.7083 20.8337 83.3333C20.8337 85.5434 21.7116 87.663 23.2744 89.2258C24.8372 90.7886 26.9569 91.6666 29.167 91.6666C31.3771 91.6666 33.4967 90.7886 35.0595 89.2258C36.6224 87.663 37.5003 85.5434 37.5003 83.3333C37.5003 81.1231 36.6224 79.0035 35.0595 77.4407C33.4967 75.8779 31.3771 74.9999 29.167 74.9999Z" fill="#73212F"/>
</svg>
